<svg width="29" height="29" viewBox="0 0 29 29" fill="none" xmlns="http://www.w3.org/2000/svg">
<circle cx="14.5471" cy="14.6935" r="12.8573" stroke="black" stroke-width="2.85718" stroke-linecap="round" stroke-linejoin="round"/>
<path d="M15.9757 1.90491C15.4785 2.32333 15.0306 2.81712 14.6495 3.38286C12.4455 6.65469 13.3111 11.0937 16.583 13.2978C16.8412 13.4717 17.1068 13.6266 17.3779 13.7626C20.2615 15.2095 21.3623 13.2594 22.9236 14.3111C23.9363 14.9933 24.2042 16.3673 23.522 17.38C22.8071 18.4413 21.6901 18.9793 21.8833 20.7176C21.9924 21.6987 22.5952 22.5442 23.3762 23.2651" stroke="black" stroke-width="2.85718" stroke-linecap="round" stroke-linejoin="round"/>
<path d="M3.11842 10.8079C4.66399 11.184 6.09418 12.0761 7.12707 13.4449C8.22804 14.9039 8.68443 16.6484 8.54399 18.337C8.46962 19.2314 9.05286 20.134 9.80338 20.626C10.166 20.8637 10.4946 21.1669 10.7707 21.5328C11.9936 23.1534 11.7496 25.4238 10.2614 26.7519" stroke="black" stroke-width="2.85718" stroke-linecap="round" stroke-linejoin="round"/>
</svg>
