<svg width="21" height="21" viewBox="0 0 21 21" fill="none" xmlns="http://www.w3.org/2000/svg">
<path d="M7.56811 17.2498C5.86879 17.2498 4.33678 16.2262 3.68637 14.6562C3.03596 13.0863 3.39522 11.2792 4.59664 10.0774L6.37986 8.29418L7.56811 9.48243L5.78573 11.2648C5.1488 11.9017 4.90005 12.8301 5.13318 13.7002C5.36631 14.5702 6.04591 15.2498 6.91598 15.483C7.78605 15.7161 8.71439 15.4673 9.35133 14.8304L11.1337 13.048L12.322 14.2371L10.5396 16.0195C9.75307 16.8099 8.68313 17.2529 7.56811 17.2498ZM8.16223 13.6422L6.97398 12.4539L12.9161 6.5118L14.1043 7.70005L8.16308 13.6413L8.16223 13.6422ZM14.6993 11.8598L13.5102 10.6715L15.2926 8.88915C15.9382 8.25412 16.1936 7.32162 15.9617 6.44624C15.7298 5.57086 15.0462 4.88711 14.1709 4.65501C13.2956 4.4229 12.363 4.67809 11.7278 5.32355L9.94461 7.10593L8.75636 5.91767L10.5396 4.13446C12.1825 2.50583 14.8329 2.51164 16.4687 4.14744C18.1045 5.78324 18.1103 8.43361 16.4817 10.0766L14.6993 11.8589V11.8598Z" fill="#79819A"/>
</svg>
