<svg width="21" height="22" viewBox="0 0 21 22" fill="none" xmlns="http://www.w3.org/2000/svg">
<path d="M16.419 17.6874C9.2495 17.6976 3.80826 12.1911 3.81593 5.08434C3.81593 4.62023 4.19216 4.24188 4.65627 4.24188H6.87425C7.29071 4.24188 7.64448 4.54788 7.70564 4.95982C7.8522 5.94711 8.13965 6.90828 8.55925 7.81395L8.6456 8.00034C8.76568 8.25951 8.68429 8.56744 8.45185 8.73343C7.76496 9.22396 7.50246 10.2113 8.03757 10.9818C8.70908 11.9486 9.55554 12.7949 10.5221 13.4661C11.2925 14.001 12.2797 13.7385 12.7702 13.0518C12.9364 12.8192 13.2445 12.7378 13.5038 12.8579L13.6893 12.9439C14.595 13.3634 15.5563 13.6509 16.5437 13.7974C16.9556 13.8586 17.2615 14.2123 17.2615 14.6288V16.8471C17.2615 17.3112 16.8843 17.6874 16.4202 17.6874L16.419 17.6874Z" fill="#79819A"/>
</svg>
