<svg width="33" height="25" viewBox="0 0 33 25" fill="none" xmlns="http://www.w3.org/2000/svg">
<g clip-path="url(#clip0_2521_129)">
<mask id="mask0_2521_129" style="mask-type:alpha" maskUnits="userSpaceOnUse" x="-3" y="-2" width="39" height="29">
<path d="M31.777 -1.61121H1.30039C-0.679819 -1.61121 -2.2851 0.0743338 -2.2851 2.15355V22.8597C-2.2851 24.9389 -0.679819 26.6245 1.30039 26.6245H31.777C33.7572 26.6245 35.3625 24.9389 35.3625 22.8597V2.15355C35.3625 0.0743338 33.7572 -1.61121 31.777 -1.61121Z" fill="white"/>
</mask>
<g mask="url(#mask0_2521_129)">
<path d="M31.777 -1.61121H1.30039C-0.679819 -1.61121 -2.2851 0.0743338 -2.2851 2.15355V22.8597C-2.2851 24.9389 -0.679819 26.6245 1.30039 26.6245H31.777C33.7572 26.6245 35.3625 24.9389 35.3625 22.8597V2.15355C35.3625 0.0743338 33.7572 -1.61121 31.777 -1.61121Z" fill="#22438B"/>
<path fill-rule="evenodd" clip-rule="evenodd" d="M3.09316 0.271118L-0.53894 0.32006L-0.492329 4.03588L29.952 24.7948L33.6038 24.7251L33.5357 21.0319L3.09316 0.271118Z" fill="white"/>
<path fill-rule="evenodd" clip-rule="evenodd" d="M1.30037 0.271118L-0.492371 2.1535L31.777 24.7421L33.5697 22.8597L1.30037 0.271118Z" fill="#C7152A"/>
<path fill-rule="evenodd" clip-rule="evenodd" d="M29.9843 0.271118H33.5697V4.03588C33.5697 4.03588 12.505 17.958 3.1254 24.7948C3.01246 24.8776 -0.4565 24.8004 -0.4565 24.8004L-0.734375 21.222L29.9843 0.271118Z" fill="white"/>
<path fill-rule="evenodd" clip-rule="evenodd" d="M31.8541 0.218506L33.5697 2.15359L1.30037 24.7421L-0.492371 22.8598L31.8541 0.218506Z" fill="#C7152A"/>
<path fill-rule="evenodd" clip-rule="evenodd" d="M12.0568 0.271118H21.0205V7.80064H33.5697V17.2125H21.0205V24.7421H12.0568V17.2125H-0.492371V7.80064H12.0568V0.271118Z" fill="white"/>
<path fill-rule="evenodd" clip-rule="evenodd" d="M13.8496 0.271118H19.2278V9.68302H33.5697V15.3302H19.2278V24.7421H13.8496V15.3302H-0.492371V9.68302H13.8496V0.271118Z" fill="#C7152A"/>
<path d="M31.777 -0.670044H1.30041C-0.184745 -0.670044 -1.3887 0.594111 -1.3887 2.15352V22.8597C-1.3887 24.4191 -0.184745 25.6833 1.30041 25.6833H31.777C33.2622 25.6833 34.4661 24.4191 34.4661 22.8597V2.15352C34.4661 0.594111 33.2622 -0.670044 31.777 -0.670044Z" stroke="black" stroke-opacity="0.1" stroke-width="2.01683"/>
</g>
</g>
<defs>
<clipPath id="clip0_2521_129">
<rect width="37.6476" height="28.2357" fill="white" transform="translate(-2.2851 -1.61121)"/>
</clipPath>
</defs>
</svg>
