<svg width="21" height="21" viewBox="0 0 21 21" fill="none" xmlns="http://www.w3.org/2000/svg">
<path d="M10.5387 17.7634C9.47733 16.8581 8.4935 15.8655 7.59753 14.7961C6.25297 13.1902 4.65631 10.7986 4.65631 8.51959C4.65512 6.13934 6.08847 3.99296 8.28751 3.08203C10.4866 2.1711 13.0178 2.67517 14.7002 4.35903C15.8064 5.46039 16.4262 6.95855 16.4212 8.51959C16.4212 10.7986 14.8245 13.1902 13.48 14.7961C12.584 15.8655 11.6002 16.8581 10.5387 17.7634ZM10.5387 5.99854C9.63807 5.99854 8.8058 6.47905 8.35546 7.25907C7.90512 8.03908 7.90512 9.0001 8.35546 9.78011C8.8058 10.5601 9.63807 11.0406 10.5387 11.0406C11.9311 11.0406 13.0598 9.91192 13.0598 8.51959C13.0598 7.12725 11.9311 5.99854 10.5387 5.99854Z" fill="#79819A"/>
</svg>
