<svg width="26" height="26" viewBox="0 0 26 26" fill="none" xmlns="http://www.w3.org/2000/svg">
<g clip-path="url(#clip0_2493_303)">
<rect x="0.973053" y="0.929932" width="24.202" height="24.202" fill="#E1E7FE"/>
<path d="M11.1486 19.3335C10.0993 19.3416 9.15933 18.6859 8.80468 17.6983C8.45004 16.7106 8.75813 15.6068 9.57297 14.9455C8.99502 14.4778 8.65923 13.774 8.65923 13.0305C8.65923 12.287 8.99502 11.5832 9.57297 11.1154C8.75787 10.4544 8.44959 9.35047 8.8043 8.36281C9.15901 7.37515 10.0992 6.71957 11.1486 6.72811H14.9995C16.0489 6.71957 16.9891 7.37515 17.3438 8.36281C17.6985 9.35047 17.3903 10.4544 16.5752 11.1154C17.39 11.7767 17.6981 12.8805 17.3434 13.8682C16.9888 14.8558 16.0488 15.5115 14.9995 15.5033C14.5148 15.5039 14.0406 15.3628 13.635 15.0974V16.8622C13.6291 18.2304 12.5169 19.3359 11.1486 19.3335ZM11.1348 15.5039C10.3882 15.5157 9.79147 16.1284 9.7993 16.875C9.80713 17.6215 10.4166 18.2215 11.1632 18.2177C11.9098 18.2138 12.513 17.6075 12.5131 16.8609V15.5039H11.1341H11.1348ZM15.0001 11.6738C14.2516 11.6777 13.6476 12.2869 13.6501 13.0354C13.6527 13.7839 14.2609 14.389 15.0094 14.3877C15.7579 14.3865 16.364 13.7793 16.364 13.0308C16.3612 12.2796 15.7507 11.6725 14.9995 11.6738H15.0001ZM11.1492 11.6738C10.6645 11.6713 10.2151 11.9275 9.97047 12.346C9.72583 12.7646 9.72307 13.2819 9.96322 13.703C10.2034 14.1241 10.65 14.3852 11.1348 14.3878H12.5131V11.6738H11.1492ZM13.635 7.84376V10.5583H14.9989C15.7284 10.5617 16.3303 9.98816 16.3621 9.25932V9.53348V9.20071C16.359 8.45037 15.7499 7.84376 14.9995 7.84376H13.635ZM11.148 7.84376C10.6632 7.84376 10.2152 8.10239 9.97283 8.52223C9.73044 8.94207 9.73044 9.45934 9.97283 9.87918C10.2152 10.299 10.6632 10.5577 11.148 10.5577H12.5131V7.84376H11.148Z" fill="#516CF7"/>
</g>
<defs>
<clipPath id="clip0_2493_303">
<rect x="0.973053" y="0.929932" width="24.202" height="24.202" rx="12.101" fill="white"/>
</clipPath>
</defs>
</svg>
