<svg width="26" height="26" viewBox="0 0 26 26" fill="none" xmlns="http://www.w3.org/2000/svg">
<g clip-path="url(#clip0_2493_316)">
<rect x="0.936035" y="0.929932" width="24.202" height="24.202" fill="#E1E7FE"/>
<path d="M10.8091 18.4102C9.53458 18.4102 8.38558 17.6424 7.89777 16.465C7.40996 15.2875 7.6794 13.9322 8.58047 13.0309L9.91788 11.6935L10.8091 12.5846L9.47229 13.9214C8.99459 14.3991 8.80802 15.0954 8.98287 15.7479C9.15772 16.4005 9.66742 16.9102 10.32 17.085C10.9725 17.2599 11.6688 17.0733 12.1465 16.5956L13.4833 15.2588L14.3745 16.1507L13.0377 17.4874C12.4478 18.0802 11.6453 18.4125 10.8091 18.4102ZM11.2547 15.7044L10.3635 14.8132L14.8201 10.3567L15.7112 11.2479L11.2553 15.7038L11.2547 15.7044ZM16.1575 14.3676L15.2656 13.4765L16.6024 12.1397C17.0866 11.6634 17.2782 10.964 17.1043 10.3075C16.9303 9.65096 16.4177 9.13815 15.7612 8.96407C15.1047 8.78999 14.4052 8.98139 13.9289 9.46548L12.5914 10.8023L11.7003 9.91107L13.0377 8.57366C14.2699 7.35219 16.2577 7.35654 17.4845 8.5834C18.7114 9.81025 18.7157 11.798 17.4942 13.0302L16.1575 14.367V14.3676Z" fill="#516CF7"/>
</g>
<defs>
<clipPath id="clip0_2493_316">
<rect x="0.936035" y="0.929932" width="24.202" height="24.202" rx="12.101" fill="white"/>
</clipPath>
</defs>
</svg>
